<svg xmlns="http://www.w3.org/2000/svg" width="149.596" height="25.187" viewBox="0 0 149.596 25.187">
  <g id="Logo" transform="translate(-97.999 -43.904)">
    <path id="Path_57" data-name="Path 57" d="M-4069.97,1154.094a13.205,13.205,0,0,1-9.214-3.675,12.237,12.237,0,0,1-3.817-8.872,12.241,12.241,0,0,1,3.817-8.873,13.2,13.2,0,0,1,9.214-3.674,13.365,13.365,0,0,1,5.308,1.081v3.181a10.859,10.859,0,0,0-5.308-1.366,10.645,10.645,0,0,0-7.308,2.826,9.277,9.277,0,0,0-3.026,6.825,9.276,9.276,0,0,0,3.026,6.824,10.641,10.641,0,0,0,7.308,2.828,10.856,10.856,0,0,0,5.308-1.367v3.181A13.36,13.36,0,0,1-4069.97,1154.094Z" transform="translate(4181 -1085.003)" fill="#375066"/>
  </g>
</svg>
