<svg width="60" height="60" viewBox="0 0 500 500" fill="none" xmlns="http://www.w3.org/2000/svg">
<path d="M248.5 222C209 222 155.5 214 152.5 209C149.5 204 152.5 214 152.5 214L159 222L163.5 253.5L169 302.5L182.5 421.5L190 435.5L227.5 441H276L305.5 435.5L312.5 426L323.5 340L332.5 259L338.5 222L346.5 216.5C346.5 216.5 351.5 204 347 209C342.5 214 288 222 248.5 222Z" fill="white"/>
<path d="M268 292.5C256 292.5 247.5 303 247.5 303C247.5 303 240.437 292.102 230.5 292.5C220.563 292.898 211 300 211 310C211 328.5 226.5 322 246.5 356C265.5 324 283.5 331.5 283.5 309C283.5 301 279 292.5 268 292.5Z" fill="black"/>
<path d="M305.266 435.059C299.945 437.536 276.244 442.143 249.157 441.997C214.331 441.809 194.016 437.041 188.212 433.076C186.666 432.02 184.75 429.558 184.342 426.634C181.924 409.288 176.011 359.288 170.799 316.119C166.593 281.289 160.641 234.844 160.158 226.915C160 224.338 160.071 222.911 158.706 220.968C157.614 219.412 156.098 218.638 154.873 218.013L154.837 217.994C152.418 216.759 151.083 214.525 150.484 212.048C150.244 211.056 150 207.092 150 203.623C150 200.154 151.129 196.685 153.386 194.702C155.643 192.72 157.255 193.215 159.19 192.72C161.125 192.224 163.06 191.233 164.027 187.764C164.994 184.295 165.962 175.375 166.446 170.915L166.446 170.914C166.929 166.454 171.766 162.49 176.603 161.498C181.44 160.507 219.024 157.683 246.255 158.029C275.431 158.4 312.521 161.498 320.744 163.976C328.967 166.454 329.413 167.941 330.902 172.897C332.39 177.852 333.32 185.286 334.287 188.755C335.255 192.224 337.19 192.72 340.575 193.215C343.961 193.711 348.798 195.693 348.798 201.145C348.798 206.596 349.252 210.065 348.798 213.039C347.89 218.986 343.961 219.481 340.575 220.472C337.19 221.464 335.924 222.95 335.255 227.906C334.585 232.862 326.065 316.119 326.065 316.119C326.065 316.119 313.972 423.66 312.037 428.12C310.103 432.581 308.67 433.473 305.266 435.059Z" stroke="white" stroke-width="7"/>
<path d="M152.5 197.5C165 201.5 193 210 246.5 210C300 210 327.5 205 346 197.5" stroke="white" stroke-width="7"/>
<path d="M165.5 173.5C165.5 173.5 202.5 182 249 182C295.5 182 330 173.5 330 173.5" stroke="white" stroke-width="7"/>
<path d="M250.884 59C250.884 59 242.743 63 242.743 69.5C242.743 81.7953 257.889 87.0648 254.683 99C251.874 109.458 235.248 108.283 234.06 119C232.911 129.361 248.713 142 248.713 142M271.508 142C271.508 142 278.718 137 279.106 129.5C279.493 122 271.508 119 271.508 111.5C271.508 104 284.405 98.5 283.99 92C283.575 85.5 276.392 84.5 276.392 84.5" stroke="white" stroke-width="6" stroke-linecap="round" stroke-linejoin="round"/>
</svg>
