<svg width="100%" height="100%" viewBox="0 0 1080 1080" style="fill-rule:evenodd;clip-rule:evenodd;stroke-linejoin:round;stroke-miterlimit:2;">
	<rect x="0" y="0" width="1080" height="1080" style="fill:none;" />
	<g>
		<g transform="matrix(1.95616,0,0,1.95616,-507.526,-369.89)">
			<path d="M531.106,256.793C533.787,255.089 537.213,255.089 539.894,256.793C564.335,272.328 683.447,348.038 711.891,366.117C713.219,366.961 714.024,368.426 714.024,370C714.024,371.574 713.219,373.039 711.891,373.883C683.444,391.964 564.313,467.686 539.888,483.211C537.21,484.913 533.79,484.913 531.112,483.211C506.687,467.686 387.556,391.964 359.109,373.883C357.781,373.039 356.976,371.574 356.976,370C356.976,368.426 357.781,366.961 359.109,366.117C387.553,348.038 506.665,272.328 531.106,256.793Z" style="fill:white;" />
		</g>
		<g transform="matrix(1,0,0,1,-2.72848e-12,5.40328)">
			<path d="M554.456,606.779C554.456,601.273 557.288,596.153 561.952,593.226C605.467,565.923 825.657,427.764 883.217,391.648C885.99,389.908 889.491,389.811 892.356,391.396C895.221,392.981 897,395.997 897,399.272C897,461.222 897,681.216 897,728.15C897,733.657 894.168,738.777 889.504,741.703C845.989,769.007 625.798,907.166 568.239,943.281C565.466,945.022 561.965,945.118 559.1,943.533C556.234,941.948 554.456,938.932 554.456,935.658C554.456,873.707 554.456,653.714 554.456,606.779Z" style="fill:white;" />
		</g>
		<g transform="matrix(1,0,0,1,-2.72848e-12,5.40328)">
			<path d="M518.048,593.226C522.712,596.153 525.544,601.273 525.544,606.779C525.544,653.714 525.544,873.707 525.544,935.658C525.544,938.932 523.766,941.948 520.9,943.533C518.035,945.118 514.534,945.022 511.761,943.281C454.202,907.166 234.011,769.007 190.496,741.703C185.832,738.777 183,733.657 183,728.15C183,681.216 183,461.222 183,399.272C183,395.997 184.779,392.981 187.644,391.396C190.509,389.811 194.01,389.908 196.783,391.648C254.343,427.764 474.533,565.923 518.048,593.226Z" style="fill:white;" />
		</g>
	</g>
</svg>
