<svg xmlns="http://www.w3.org/2000/svg" xmlns:xlink="http://www.w3.org/1999/xlink" width="1600" height="421.788" viewBox="0 0 1600 421.788">
  <defs>
    <clipPath id="clip-Skyline">
      <rect width="1600" height="421.788"/>
    </clipPath>
  </defs>
  <g id="Group_107" data-name="Group 107">
    <path id="Path_349" data-name="Path 349" d="M404.032,459.081q-.45.173-.9.349l-.9.355.131.238.13.237c.1.185.2.372.294.562a4.18,4.18,0,0,1,.233.584,5.23,5.23,0,0,1,.122,1.835,10.086,10.086,0,0,0-.03,1.862,4.733,4.733,0,0,1,.059.663.84.84,0,0,1-.2.575.8.8,0,0,1-.494.23,2.633,2.633,0,0,1-.582,0c-.208-.02-.418-.042-.628-.064l-.627-.064a.55.55,0,0,1-.08-.011.2.2,0,0,1-.071-.029.2.2,0,0,1-.071-.1.628.628,0,0,1-.027-.118,2.135,2.135,0,0,0-.108-.512.427.427,0,0,0-.32-.3.387.387,0,0,0-.325.107.564.564,0,0,0-.173.316.939.939,0,0,0,.015.354,2.824,2.824,0,0,0,.107.346,1.373,1.373,0,0,1-.365.168,1.681,1.681,0,0,1-.4.065h7.882s-.051-.126-.1-.263a3.035,3.035,0,0,1-.118-.338,15.24,15.24,0,0,0-1.272-3.533A12.845,12.845,0,0,1,404.032,459.081Z" fill="none"/>
    <path id="Path_350" data-name="Path 350" d="M418.957,452.236a.214.214,0,0,0,.073.039.542.542,0,0,0,.082.017,2.037,2.037,0,0,0,1.238-.334,4.536,4.536,0,0,1,1.232-.548,1.65,1.65,0,0,1,.279-.028c.094,0,.187,0,.28.012q.036-1.064.064-2.129c.02-.71.038-1.42.058-2.13a7.171,7.171,0,0,1-.865.9,10.377,10.377,0,0,1-.991.764c-.224.152-.455.3-.666.473a2.406,2.406,0,0,0-.548.587,2.317,2.317,0,0,0-.323,1.021,7.154,7.154,0,0,0,0,1.1.662.662,0,0,0,.018.14A.215.215,0,0,0,418.957,452.236Z" fill="none"/>
    <path id="Path_351" data-name="Path 351" d="M398.13,464.987a1.008,1.008,0,0,0,.008-.263.3.3,0,0,0-.118-.211.271.271,0,0,0-.324.037.971.971,0,0,0-.255.31l-.338.625-.339.625a3.173,3.173,0,0,1-.2.332,1.49,1.49,0,0,1-.254.283H398.7a1.633,1.633,0,0,1-.4-.067,1.346,1.346,0,0,1-.366-.172q.048-.373.1-.749T398.13,464.987Z" fill="none"/>
    <path id="Path_352" data-name="Path 352" d="M488.615,510.5h1.393v-2.767h-1.393V510.5Z" fill="#f33829"/>
    <path id="Path_353" data-name="Path 353" d="M488.615,489.2h1.393V486.43h-1.393V489.2Z" fill="#f33829"/>
    <path id="Path_354" data-name="Path 354" d="M488.615,505.461h1.393V491.468h-1.393v13.993Z" fill="#f33829"/>
    <path id="Path_355" data-name="Path 355" d="M479.09,507.733v-2.272h1.393V491.468H479.09V489.2h1.393V486.43H479.09v-2.272H450.507v2.272h-1.393V489.2h1.393v2.272h-1.393v13.993h1.393v2.272h-1.393V510.5h1.393v2.272H479.09V510.5h1.393v-2.767H479.09ZM464.8,505.184a7.86,7.86,0,1,1,5.557-2.3A7.837,7.837,0,0,1,464.8,505.184Z" fill="#f33829"/>
    <path id="Path_356" data-name="Path 356" d="M380.005,510.5v-2.767h-1.393v-2.272h1.393V491.468h-1.393V489.2h1.393V486.43h-1.393v-2.272H350.029v2.272h-1.393V489.2h1.393v2.272h-1.393v13.993h1.393v2.272h-1.393V510.5h1.393v2.272h28.583V510.5h1.393Zm-15.8-5.316a7.86,7.86,0,1,1,5.557-2.3A7.835,7.835,0,0,1,364.209,505.184Z" fill="#f33829"/>
    <path id="Path_357" data-name="Path 357" d="M340.5,507.733H339.11V510.5H340.5v-2.767Z" fill="#f33829"/>
    <path id="Path_358" data-name="Path 358" d="M440.982,510.5v-2.767h-1.393v-2.272h1.393V491.468h-1.393V489.2h1.393V486.43h-1.393v-2.272H389.53v2.272h-1.393V489.2h1.393v2.272h-1.393v13.993h1.393v2.272h-1.393V510.5h1.393v2.272h50.059V510.5h1.393Zm-4.706-5.107H392.843V489.256h43.433v16.137Z" fill="#f33829"/>
    <path id="Path_359" data-name="Path 359" d="M340.5,486.43H339.11V489.2H340.5V486.43Z" fill="#f33829"/>
    <path id="Path_360" data-name="Path 360" d="M340.5,491.468H339.11v13.993H340.5V491.468Z" fill="#f33829"/>
    <path id="Path_361" data-name="Path 361" d="M380,559.324H348.636v4.448H380v-4.448Z" fill="#f33829"/>
    <path id="Path_362" data-name="Path 362" d="M380,519.056V515.6H348.636v3.455H380Z" fill="#f33829"/>
    <path id="Path_363" data-name="Path 363" d="M480.483,559.324H449.114v4.448h31.369v-4.448Z" fill="#f33829"/>
    <path id="Path_364" data-name="Path 364" d="M488.615,618.005h1.393V611.1h-1.393v6.909Z" fill="#f33829"/>
    <path id="Path_365" data-name="Path 365" d="M488.615,588.989h1.393V539h-1.393v49.986Z" fill="#f33829"/>
    <path id="Path_366" data-name="Path 366" d="M450.507,524.783h-1.393v2.767h1.393v2.272H479.09V527.55h1.393v-2.767H479.09v-2.272H450.507v2.272Z" fill="#f33829"/>
    <path id="Path_367" data-name="Path 367" d="M440.982,519.056V515.6H388.137v3.455h52.845Z" fill="#f33829"/>
    <path id="Path_368" data-name="Path 368" d="M340.5,524.783H339.11v2.767H340.5v-2.767Z" fill="#f33829"/>
    <path id="Path_369" data-name="Path 369" d="M480.483,519.056V515.6H449.114v3.455h31.369Z" fill="#f33829"/>
    <path id="Path_370" data-name="Path 370" d="M488.615,608.824h1.393V591.261h-1.393v17.563Z" fill="#f33829"/>
    <path id="Path_371" data-name="Path 371" d="M378.612,527.55H380v-2.767h-1.393v-2.272H350.029v2.272h-1.393v2.767h1.393v2.272h28.583V527.55Z" fill="#f33829"/>
    <path id="Path_372" data-name="Path 372" d="M479.09,611.1v-2.272h1.393V591.261H479.09v-2.272h1.393V566.8H449.114v22.186h1.393v2.272h-1.393v17.563h1.393V611.1h-1.393v6.909h6.313V578.667a9.452,9.452,0,0,1,9.452-9.451h0a9.452,9.452,0,0,1,9.452,9.451v39.338h6.152V611.1H479.09Z" fill="#f33829"/>
    <path id="Path_373" data-name="Path 373" d="M340.5,515.6H339.11v6.91H340.5V515.6Z" fill="#f33829"/>
    <path id="Path_374" data-name="Path 374" d="M440.982,527.55v-2.767h-1.393v-2.272H389.53v2.272h-1.393v2.767h1.393v2.272h50.059V527.55h1.393Z" fill="#f33829"/>
    <path id="Path_375" data-name="Path 375" d="M488.615,522.511h1.393V515.6h-1.393v6.91Z" fill="#f33829"/>
    <path id="Path_376" data-name="Path 376" d="M339.11,611.1v6.909H340.5V611.1H339.11Z" fill="#f33829"/>
    <path id="Path_377" data-name="Path 377" d="M378.612,611.1v-2.272h1.393V591.261h-1.393v-2.272h1.393V566.8H348.636v22.186h1.393v2.272h-1.393v17.563h1.393V611.1h-1.393v6.909h6.313V578.667a9.451,9.451,0,0,1,9.451-9.451h0a9.451,9.451,0,0,1,9.452,9.451v39.338h6.153V611.1h-1.393Z" fill="#f33829"/>
    <path id="Path_378" data-name="Path 378" d="M488.615,536.731h-8.132v-2.314H449.114v2.314h-8.132v-2.314H414.559a22.131,22.131,0,0,1,22.132,22.132v61.456h4.291V611.1h-1.393v-2.272h1.393V591.261h-1.393v-2.272h1.393V539h-1.393v-2.272h10.918V539h-1.393v17.29h31.369V539H479.09v-2.272h10.918v-6.91h-1.393v6.91ZM478,553.122H451.372V539.848H478v13.274Z" fill="#f33829"/>
    <path id="Path_379" data-name="Path 379" d="M488.615,527.55h1.393v-2.767h-1.393v2.767Z" fill="#f33829"/>
    <path id="Path_380" data-name="Path 380" d="M340.5,539H339.11v49.986H340.5V539Z" fill="#f33829"/>
    <path id="Path_381" data-name="Path 381" d="M414.559,534.417H388.137v-4.6h0v6.91h-8.132v-2.314H348.636v2.314H340.5v-6.91H339.11v6.91h10.919V539h-1.393v17.29h31.369V539h-1.393v-2.272H389.53V539h-1.393v49.986h1.393v2.272h-1.393v17.563h1.393V611.1h-1.393v6.909h4.29V556.549a22.133,22.133,0,0,1,22.132-22.132Zm-37.034,18.705H350.894V539.848h26.631v13.274Z" fill="#f33829"/>
    <path id="Path_382" data-name="Path 382" d="M340.5,591.261H339.11v17.563H340.5V591.261Z" fill="#f33829"/>
    <path id="Path_383" data-name="Path 383" d="M440.108,468.535h-51.1v5.21h51.1v-5.21Z" fill="#fd7752"/>
    <path id="Path_384" data-name="Path 384" d="M440.108,475.531h-51.1V478.5h51.1v-2.967Z" fill="#fd7752"/>
    <path id="Path_385" data-name="Path 385" d="M490.008,478.5H339.11v2.83h150.9V478.5Z" fill="#440b11"/>
    <path id="Path_386" data-name="Path 386" d="M378.612,484.158H492.646v-2.83H336.472v2.83h42.139Z" fill="#fd7752"/>
    <path id="Path_387" data-name="Path 387" d="M450.507,512.772H336.472v2.83H492.646v-2.83H450.507Z" fill="#fd7752"/>
    <path id="Path_388" data-name="Path 388" d="M445.392,466.725H396.31a.307.307,0,0,0-.035.037.157.157,0,0,1-.037.036.853.853,0,0,1-.513.082,1.216,1.216,0,0,1-.525-.155H383.727v1.786h61.665v-1.786Z" fill="#f33829"/>
    <path id="Path_389" data-name="Path 389" d="M445.392,475.531v-1.786H383.727v1.786h61.665Z" fill="#f33829"/>
    <path id="Path_390" data-name="Path 390" d="M414.559,534.417h26.423v-4.6H388.137v4.6h26.422a22.133,22.133,0,0,0-22.132,22.132v61.456h2.315V556.549a19.818,19.818,0,0,1,39.635,0v61.456h2.314V556.549a22.131,22.131,0,0,0-22.132-22.132Z" fill="#fd7752"/>
    <path id="Path_391" data-name="Path 391" d="M414.559,536.731a19.84,19.84,0,0,0-19.817,19.818v61.456h4.072V556.549a15.745,15.745,0,0,1,31.49,0v61.456h4.073V556.549a19.84,19.84,0,0,0-19.818-19.818Z" fill="#440b11"/>
    <path id="Path_392" data-name="Path 392" d="M380,522.511h8.132V515.6H380v6.91Z" fill="#440b11"/>
    <path id="Path_393" data-name="Path 393" d="M380,534.417v2.314h8.132v-6.909H380v4.6Z" fill="#440b11"/>
    <path id="Path_394" data-name="Path 394" d="M380,563.772v25.217h8.132V539H380v24.769Z" fill="#440b11"/>
    <path id="Path_395" data-name="Path 395" d="M380,527.55h8.132v-2.767H380v2.767Z" fill="#440b11"/>
    <path id="Path_396" data-name="Path 396" d="M380,611.1v6.909h8.132V611.1H380Z" fill="#440b11"/>
    <path id="Path_397" data-name="Path 397" d="M380,608.824h8.132V591.261H380v17.563Z" fill="#440b11"/>
    <path id="Path_398" data-name="Path 398" d="M378.612,608.824V611.1H389.53v-2.272H378.612Z" fill="#fd7752"/>
    <path id="Path_399" data-name="Path 399" d="M348.636,522.511V515.6H340.5v6.91h8.132Z" fill="#440b11"/>
    <path id="Path_400" data-name="Path 400" d="M340.5,529.821v6.909h8.132v-6.909H340.5Z" fill="#440b11"/>
    <path id="Path_401" data-name="Path 401" d="M340.5,588.989h8.132V539H340.5v49.986Z" fill="#440b11"/>
    <path id="Path_402" data-name="Path 402" d="M340.5,524.783v2.767h8.132v-2.767H340.5Z" fill="#440b11"/>
    <path id="Path_403" data-name="Path 403" d="M348.636,524.783h1.393v-2.272H339.11v2.272h9.525Z" fill="#fd7752"/>
    <path id="Path_404" data-name="Path 404" d="M348.636,529.821h1.393V527.55H339.11v2.272h9.525Z" fill="#fd7752"/>
    <path id="Path_405" data-name="Path 405" d="M340.5,611.1v6.909h8.132V611.1H340.5Z" fill="#440b11"/>
    <path id="Path_406" data-name="Path 406" d="M340.5,608.824h8.132V591.261H340.5v17.563Z" fill="#440b11"/>
    <path id="Path_407" data-name="Path 407" d="M348.636,591.261h1.393v-2.272H339.11v2.272h9.525Z" fill="#fd7752"/>
    <path id="Path_408" data-name="Path 408" d="M348.636,611.1h1.393v-2.272H339.11V611.1h9.525Z" fill="#fd7752"/>
    <path id="Path_409" data-name="Path 409" d="M348.636,539h1.393v-2.272H339.11V539h9.525Z" fill="#fd7752"/>
    <path id="Path_410" data-name="Path 410" d="M480.483,522.511h8.132V515.6h-8.132v6.91Z" fill="#440b11"/>
    <path id="Path_411" data-name="Path 411" d="M480.483,536.731h8.132v-6.909h-8.132v6.909Z" fill="#440b11"/>
    <path id="Path_412" data-name="Path 412" d="M480.483,563.772v25.217h8.132V539h-8.132v24.769Z" fill="#440b11"/>
    <path id="Path_413" data-name="Path 413" d="M488.615,527.55v-2.767h-8.132v2.767h8.132Z" fill="#440b11"/>
    <path id="Path_414" data-name="Path 414" d="M480.483,611.1v6.909h8.132V611.1h-8.132Z" fill="#440b11"/>
    <path id="Path_415" data-name="Path 415" d="M488.615,608.824V591.261h-8.132v17.563h8.132Z" fill="#440b11"/>
    <path id="Path_416" data-name="Path 416" d="M480.483,608.824H479.09V611.1h10.918v-2.272h-9.525Z" fill="#fd7752"/>
    <path id="Path_417" data-name="Path 417" d="M440.982,522.511h8.132V515.6h-8.132v6.91Z" fill="#440b11"/>
    <path id="Path_418" data-name="Path 418" d="M440.982,529.821v4.6h0v2.314h8.132v-6.909h-8.132Z" fill="#440b11"/>
    <path id="Path_419" data-name="Path 419" d="M449.114,566.8V539h-8.132v49.986h8.132V566.8Z" fill="#440b11"/>
    <path id="Path_420" data-name="Path 420" d="M440.982,527.55h8.132v-2.767h-8.132v2.767Z" fill="#440b11"/>
    <path id="Path_421" data-name="Path 421" d="M440.982,611.1v6.909h8.132V611.1h-8.132Z" fill="#440b11"/>
    <path id="Path_422" data-name="Path 422" d="M449.114,591.261h-8.132v17.563h8.132V591.261Z" fill="#440b11"/>
    <path id="Path_423" data-name="Path 423" d="M450.507,611.1v-2.272H439.589V611.1h10.918Z" fill="#fd7752"/>
    <path id="Path_424" data-name="Path 424" d="M378.612,505.461v2.272H389.53v-2.272H378.612Z" fill="#440b11"/>
    <path id="Path_425" data-name="Path 425" d="M388.137,510.5h-9.525v2.272H389.53V510.5h-1.393Z" fill="#440b11"/>
    <path id="Path_426" data-name="Path 426" d="M340.5,491.468v13.993h8.132V491.468H340.5Z" fill="#fd7752"/>
    <path id="Path_427" data-name="Path 427" d="M340.5,507.733V510.5h8.132v-2.767H340.5Z" fill="#fd7752"/>
    <path id="Path_428" data-name="Path 428" d="M348.636,507.733h1.393v-2.272H339.11v2.272h9.525Z" fill="#440b11"/>
    <path id="Path_429" data-name="Path 429" d="M350.029,510.5H339.11v2.272h10.918V510.5Z" fill="#440b11"/>
    <path id="Path_430" data-name="Path 430" d="M480.483,505.461H479.09v2.272h10.918v-2.272h-9.525Z" fill="#440b11"/>
    <path id="Path_431" data-name="Path 431" d="M488.615,510.5H479.09v2.272h10.918V510.5h-1.393Z" fill="#440b11"/>
    <path id="Path_432" data-name="Path 432" d="M439.589,505.461v2.272h10.918v-2.272H439.589Z" fill="#440b11"/>
    <path id="Path_433" data-name="Path 433" d="M449.114,510.5h-9.525v2.272h10.918V510.5h-1.393Z" fill="#440b11"/>
    <path id="Path_434" data-name="Path 434" d="M378.612,489.2v2.272H389.53V489.2H378.612Z" fill="#440b11"/>
    <path id="Path_435" data-name="Path 435" d="M380,486.43h9.525v-2.272H378.612v2.272H380Z" fill="#440b11"/>
    <path id="Path_436" data-name="Path 436" d="M340.5,486.43V489.2h8.132V486.43H340.5Z" fill="#fd7752"/>
    <path id="Path_437" data-name="Path 437" d="M378.612,524.783H389.53v-2.272H378.612v2.272Z" fill="#fd7752"/>
    <path id="Path_438" data-name="Path 438" d="M388.137,527.55h-9.525v2.272H389.53V527.55h-1.393Z" fill="#fd7752"/>
    <path id="Path_439" data-name="Path 439" d="M378.612,588.989v2.272H389.53v-2.272H378.612Z" fill="#fd7752"/>
    <path id="Path_440" data-name="Path 440" d="M389.53,611.1h-1.393" fill="none" stroke="#fd7752" stroke-linecap="round" stroke-linejoin="round" stroke-width="0"/>
    <path id="Path_441" data-name="Path 441" d="M378.612,611.1H380" fill="none" stroke="#fd7752" stroke-linecap="round" stroke-linejoin="round" stroke-width="0"/>
    <path id="Path_442" data-name="Path 442" d="M380,611.1h8.132" fill="none" stroke="#fd7752" stroke-linecap="round" stroke-linejoin="round" stroke-width="0"/>
    <path id="Path_443" data-name="Path 443" d="M389.53,539v-2.272H378.612V539H389.53Z" fill="#fd7752"/>
    <path id="Path_444" data-name="Path 444" d="M380,505.461h8.132V491.468H380v13.993Z" fill="#fd7752"/>
    <path id="Path_445" data-name="Path 445" d="M380,510.5h8.132v-2.767H380V510.5Z" fill="#fd7752"/>
    <path id="Path_446" data-name="Path 446" d="M380,489.2h8.132V486.43H380V489.2Z" fill="#fd7752"/>
    <path id="Path_447" data-name="Path 447" d="M348.636,491.468h1.393V489.2H339.11v2.272h9.525Z" fill="#440b11"/>
    <path id="Path_448" data-name="Path 448" d="M348.636,486.43h1.393v-2.272H339.11v2.272h9.525Z" fill="#440b11"/>
    <path id="Path_449" data-name="Path 449" d="M480.483,489.2H479.09v2.272h10.918V489.2h-9.525Z" fill="#440b11"/>
    <path id="Path_450" data-name="Path 450" d="M479.09,486.43h10.918v-2.272H479.09v2.272Z" fill="#440b11"/>
    <path id="Path_451" data-name="Path 451" d="M439.589,489.2v2.272h10.918V489.2H439.589Z" fill="#440b11"/>
    <path id="Path_452" data-name="Path 452" d="M440.982,486.43h9.525v-2.272H439.589v2.272h1.393Z" fill="#440b11"/>
    <path id="Path_453" data-name="Path 453" d="M392.843,505.393h43.433V489.256H392.843v16.137Z" fill="#440b11"/>
    <path id="Path_454" data-name="Path 454" d="M364.209,489.465a7.86,7.86,0,1,0,5.557,2.3A7.835,7.835,0,0,0,364.209,489.465Z" fill="#440b11"/>
    <path id="Path_455" data-name="Path 455" d="M464.8,489.465a7.86,7.86,0,1,0,5.557,2.3A7.837,7.837,0,0,0,464.8,489.465Z" fill="#440b11"/>
    <path id="Path_456" data-name="Path 456" d="M439.589,524.783h10.918v-2.272H439.589v2.272Z" fill="#fd7752"/>
    <path id="Path_457" data-name="Path 457" d="M450.507,529.821V527.55H439.589v2.272h10.918Z" fill="#fd7752"/>
    <path id="Path_458" data-name="Path 458" d="M450.507,591.261v-2.272H439.589v2.272h10.918Z" fill="#fd7752"/>
    <path id="Path_459" data-name="Path 459" d="M450.507,611.1h-1.393" fill="none" stroke="#fd7752" stroke-linecap="round" stroke-linejoin="round" stroke-width="0"/>
    <path id="Path_460" data-name="Path 460" d="M439.589,611.1h1.393" fill="none" stroke="#fd7752" stroke-linecap="round" stroke-linejoin="round" stroke-width="0"/>
    <path id="Path_461" data-name="Path 461" d="M449.114,611.1h-8.132" fill="none" stroke="#fd7752" stroke-linecap="round" stroke-linejoin="round" stroke-width="0"/>
    <path id="Path_462" data-name="Path 462" d="M450.507,539v-2.272H439.589V539h10.918Z" fill="#fd7752"/>
    <path id="Path_463" data-name="Path 463" d="M440.982,505.461h8.132V491.468h-8.132v13.993Z" fill="#fd7752"/>
    <path id="Path_464" data-name="Path 464" d="M440.982,510.5h8.132v-2.767h-8.132V510.5Z" fill="#fd7752"/>
    <path id="Path_465" data-name="Path 465" d="M440.982,489.2h8.132V486.43h-8.132V489.2Z" fill="#fd7752"/>
    <path id="Path_466" data-name="Path 466" d="M480.483,522.511H479.09v2.272h10.918v-2.272h-9.525Z" fill="#fd7752"/>
    <path id="Path_467" data-name="Path 467" d="M480.483,527.55H479.09v2.272h10.918V527.55h-9.525Z" fill="#fd7752"/>
    <path id="Path_468" data-name="Path 468" d="M480.483,588.989H479.09v2.272h10.918v-2.272h-9.525Z" fill="#fd7752"/>
    <path id="Path_469" data-name="Path 469" d="M479.09,611.1h1.393" fill="none" stroke="#fd7752" stroke-linecap="round" stroke-linejoin="round" stroke-width="0"/>
    <path id="Path_470" data-name="Path 470" d="M490.008,611.1h-1.393" fill="none" stroke="#fd7752" stroke-linecap="round" stroke-linejoin="round" stroke-width="0"/>
    <path id="Path_471" data-name="Path 471" d="M480.483,611.1h8.132" fill="none" stroke="#fd7752" stroke-linecap="round" stroke-linejoin="round" stroke-width="0"/>
    <path id="Path_472" data-name="Path 472" d="M479.09,539h10.918v-2.272H479.09V539Z" fill="#fd7752"/>
    <path id="Path_473" data-name="Path 473" d="M488.615,505.461V491.468h-8.132v13.993h8.132Z" fill="#fd7752"/>
    <path id="Path_474" data-name="Path 474" d="M480.483,507.733V510.5h8.132v-2.767h-8.132Z" fill="#fd7752"/>
    <path id="Path_475" data-name="Path 475" d="M488.615,489.2V486.43h-8.132V489.2h8.132Z" fill="#fd7752"/>
    <path id="Path_476" data-name="Path 476" d="M364.4,569.216h0a9.451,9.451,0,0,0-9.451,9.451v39.338h2.314V578.668a7.137,7.137,0,0,1,14.275,0v39.337h2.314V578.667a9.451,9.451,0,0,0-9.452-9.451Z" fill="#fd7752"/>
    <path id="Path_477" data-name="Path 477" d="M364.4,571.53a7.146,7.146,0,0,0-7.138,7.138v39.337h4.073V578.667a3.064,3.064,0,0,1,6.129,0v39.338h4.073V578.668a7.146,7.146,0,0,0-7.137-7.138Z" fill="#440b11"/>
    <path id="Path_478" data-name="Path 478" d="M350.894,553.122h26.631V539.848H350.894v13.274Z" fill="#440b11"/>
    <path id="Path_479" data-name="Path 479" d="M380,522.511v-3.455H348.636v3.455H380Z" fill="#fd7752"/>
    <path id="Path_480" data-name="Path 480" d="M439.589,522.511h1.393v-3.455H388.137v3.455h51.452Z" fill="#fd7752"/>
    <path id="Path_481" data-name="Path 481" d="M378.612,529.821H348.636v4.6H380v-4.6h-1.393Z" fill="#fd7752"/>
    <path id="Path_482" data-name="Path 482" d="M380,559.324v-3.031H348.636v3.031H380Z" fill="#fd7752"/>
    <path id="Path_483" data-name="Path 483" d="M348.636,563.772V566.8H380v-3.031H348.636Z" fill="#fd7752"/>
    <path id="Path_484" data-name="Path 484" d="M464.879,569.216h0a9.452,9.452,0,0,0-9.452,9.451v39.338h2.315V578.668a7.137,7.137,0,0,1,14.274,0v39.337h2.315V578.667a9.452,9.452,0,0,0-9.452-9.451Z" fill="#fd7752"/>
    <path id="Path_485" data-name="Path 485" d="M464.879,571.53a7.146,7.146,0,0,0-7.137,7.138v39.337h4.072V578.667a3.065,3.065,0,0,1,6.13,0v39.338h4.072V578.668a7.144,7.144,0,0,0-7.137-7.138Z" fill="#440b11"/>
    <path id="Path_486" data-name="Path 486" d="M451.372,553.122H478V539.848H451.372v13.274Z" fill="#440b11"/>
    <path id="Path_487" data-name="Path 487" d="M449.114,519.056v3.455h31.369v-3.455H449.114Z" fill="#fd7752"/>
    <path id="Path_488" data-name="Path 488" d="M449.114,529.821v4.6h31.369v-4.6H449.114Z" fill="#fd7752"/>
    <path id="Path_489" data-name="Path 489" d="M480.483,559.324v-3.031H449.114v3.031h31.369Z" fill="#fd7752"/>
    <path id="Path_490" data-name="Path 490" d="M449.114,563.772V566.8h31.369v-3.031H449.114Z" fill="#fd7752"/>
    <path id="Path_491" data-name="Path 491" d="M396.238,466.8a.157.157,0,0,0,.037-.036.307.307,0,0,1,.035-.037,1.49,1.49,0,0,0,.254-.283,3.173,3.173,0,0,0,.2-.332l.339-.625.338-.625a.971.971,0,0,1,.255-.31.271.271,0,0,1,.324-.037.3.3,0,0,1,.118.211,1.008,1.008,0,0,1-.008.263q-.048.373-.1.75t-.1.749a1.346,1.346,0,0,0,.366.172,1.633,1.633,0,0,0,.4.067h.131a1.681,1.681,0,0,0,.4-.065,1.373,1.373,0,0,0,.365-.168,2.824,2.824,0,0,1-.107-.346.939.939,0,0,1-.015-.354.564.564,0,0,1,.173-.316.387.387,0,0,1,.325-.107.427.427,0,0,1,.32.3,2.135,2.135,0,0,1,.108.512.628.628,0,0,0,.027.118.2.2,0,0,0,.071.1.2.2,0,0,0,.071.029.55.55,0,0,0,.08.011l.627.064c.21.022.42.044.628.064a2.633,2.633,0,0,0,.582,0,.8.8,0,0,0,.494-.23.84.84,0,0,0,.2-.575,4.733,4.733,0,0,0-.059-.663,10.086,10.086,0,0,1,.03-1.862,5.23,5.23,0,0,0-.122-1.835,4.18,4.18,0,0,0-.233-.584c-.091-.19-.193-.377-.294-.562l-.13-.237-.131-.238.9-.355q.45-.176.9-.349a12.845,12.845,0,0,0,1.186,3.51,15.24,15.24,0,0,1,1.272,3.533,3.035,3.035,0,0,0,.118.338c.053.137.1.263.1.263h17.654a11.387,11.387,0,0,1-.581-1.261,3.838,3.838,0,0,1-.341-2.11l.121-.112.12-.111a7.167,7.167,0,0,0,1.6-3.747c.033-.292.053-.6.111-.886a1.7,1.7,0,0,1,.347-.783c.025-.029.051-.056.078-.084l.084-.081a4.379,4.379,0,0,1,.788.358c.255.143.5.3.742.452a2.4,2.4,0,0,1-.2.706,6.48,6.48,0,0,0-.269.7,5.476,5.476,0,0,0-.133,1.027,2.483,2.483,0,0,1-.238.987,3.037,3.037,0,0,1-.338.464,2.921,2.921,0,0,0-.338.467,1.691,1.691,0,0,0-.164,1,3.027,3.027,0,0,0,.314,1c.119.231.266.554.432.862a3.021,3.021,0,0,0,.54.775,1.133,1.133,0,0,0,.676.232c.267.024.554.011.788.011h.145a1.877,1.877,0,0,0,.682-.076.615.615,0,0,0,.434-.416,1.2,1.2,0,0,0,0-.4.634.634,0,0,1,.047-.379.51.51,0,0,1,.1-.129,1.518,1.518,0,0,1,.129-.1,2.647,2.647,0,0,1,.306-.2,1.143,1.143,0,0,1,.336-.128.788.788,0,0,1,.368.007.562.562,0,0,1,.3.19.785.785,0,0,1,.119.524,3.651,3.651,0,0,0-.015.581.351.351,0,0,0,.02.1.174.174,0,0,0,.055.078.187.187,0,0,0,.071.029.72.72,0,0,0,.079.012q.339.016.677.038l.677.043a2.632,2.632,0,0,0,.478-.005.73.73,0,0,0,.677-.844,3.607,3.607,0,0,0-.148-.8,5.654,5.654,0,0,1-.156-1.916,1.678,1.678,0,0,1,.132-.539.625.625,0,0,1,.366-.357.875.875,0,0,1,.246-.035,1.876,1.876,0,0,0,.251-.017,1.016,1.016,0,0,0,.639-.4,3.242,3.242,0,0,0,.408-.709,4.458,4.458,0,0,0,.365-1.134,1.345,1.345,0,0,0-.226-1.059,2.106,2.106,0,0,0-.238-.253,1.542,1.542,0,0,1-.23-.256,1.322,1.322,0,0,1-.176-.49c-.033-.174-.05-.355-.085-.529-.017-.078-.037-.156-.056-.234s-.036-.156-.048-.235a1.919,1.919,0,0,1-.014-.3c0-.1.005-.2,0-.3a2.854,2.854,0,0,0-.311-1.244,2.8,2.8,0,0,0-.818-.984,2.878,2.878,0,0,0-2.453-.474,2.006,2.006,0,0,0-.313.111,1.362,1.362,0,0,0-.283.172,1.906,1.906,0,0,0-.323.38,3.634,3.634,0,0,1-.3.4,2.167,2.167,0,0,1-.571.423c-.212.115-.436.213-.65.323a4.172,4.172,0,0,0-.9.6,3.11,3.11,0,0,0-.672.818,8.072,8.072,0,0,0-.844-.431,4.28,4.28,0,0,0-.886-.281,2.786,2.786,0,0,1-.666-1.093,9.784,9.784,0,0,1-.333-1.283,4.342,4.342,0,0,0-.124-.49,1.429,1.429,0,0,0-.751-.883,4.861,4.861,0,0,0-.647-.276l-.185-.067-.187-.064q.14-3.975.227-7.951t.127-7.952a.406.406,0,0,0-.43-.42.416.416,0,0,0-.438.42q-.021,2.146-.058,4.294t-.087,4.294a1.091,1.091,0,0,0-.456.236,1.216,1.216,0,0,0-.32.419,2.835,2.835,0,0,0-.2.785,7.563,7.563,0,0,1-.126.809,2.744,2.744,0,0,1-2.408,2.025,5.428,5.428,0,0,1,.046-1.417c.068-.472.168-.943.241-1.414a6.124,6.124,0,0,0,.078-1.437,2.918,2.918,0,0,0-.413-1.336,4.234,4.234,0,0,0-.813-.885,6.944,6.944,0,0,1-.868-.846,1.664,1.664,0,0,1-.153-.22.886.886,0,0,1-.1-.247.932.932,0,0,1,0-.333,2.7,2.7,0,0,1,.081-.33c.084-.282.177-.565.252-.85a4.146,4.146,0,0,0,.147-.869,2.321,2.321,0,0,0-.125-.879,1.535,1.535,0,0,0-.494-.707,1.694,1.694,0,0,0-.927-.327,4.208,4.208,0,0,0-1.026.07,3.565,3.565,0,0,0-.511.117,1.46,1.46,0,0,0-.46.234,1.275,1.275,0,0,0-.393.547,1.755,1.755,0,0,0-.114.677,2.66,2.66,0,0,0,.115.674,5.689,5.689,0,0,0,.244.645c.1.23.21.459.3.693a3.855,3.855,0,0,1,.228.717,2.1,2.1,0,0,1,.019.758,1.406,1.406,0,0,1-.3.677l.03.137.03.136a3.419,3.419,0,0,0-1.5.344,3.85,3.85,0,0,0-1.233.937,4.32,4.32,0,0,0-.782,1.332,4.983,4.983,0,0,0-.305,1.523,4.751,4.751,0,0,0,.181,1.533,3.819,3.819,0,0,0,.707,1.356,1.932,1.932,0,0,1,.19.252.465.465,0,0,1,.074.286.516.516,0,0,1-.185.313c-.094.089-.207.169-.293.264a2.366,2.366,0,0,0-.376.83c-.1.29-.221.547-.5.633a.641.641,0,0,1-.445-.039,1.275,1.275,0,0,1-.388-.271c-.111-.109-.211-.231-.318-.345a1.545,1.545,0,0,0-.355-.3,1,1,0,0,0-1.488,1,2.657,2.657,0,0,0-1.662.8,4.486,4.486,0,0,0-1.041,1.63,6.157,6.157,0,0,0-.332,1.322,6.473,6.473,0,0,0-.041,1.363q-.645.246-1.287.5t-1.284.508c-.024-.031-.046-.063-.069-.1l-.071-.094c-.058-.075-.117-.149-.169-.226a.951.951,0,0,1-.126-.248.863.863,0,0,1-.045-.253c0-.086,0-.172,0-.256a4.606,4.606,0,0,0-.112-1.06,3.949,3.949,0,0,0-.368-.994,1.957,1.957,0,0,0-.474-.588.913.913,0,0,0-.666-.222,1.21,1.21,0,0,0-.326.091,2.883,2.883,0,0,1-.322.117.745.745,0,0,1-.345.011.4.4,0,0,1-.268-.179.542.542,0,0,1-.051-.158c-.01-.056-.016-.114-.024-.172a1.046,1.046,0,0,0-.257-.523,1.063,1.063,0,0,0-1.583,0,1.649,1.649,0,0,0-.312.611c-.072.225-.128.459-.221.673a.877.877,0,0,1-.062.122.423.423,0,0,1-.094.1.408.408,0,0,1-.2.071c-.072.008-.147.007-.219.01a1.619,1.619,0,0,0-1.441,1.076,2.938,2.938,0,0,0-.108.548,4.03,4.03,0,0,1-.1.557,3.466,3.466,0,0,1-.161.451c-.061.149-.125.3-.174.452a1.524,1.524,0,0,0-.073.478.811.811,0,0,0,.131.447c.029.047.065.09.1.136a.434.434,0,0,1,.076.148.349.349,0,0,1-.084.328,1.439,1.439,0,0,0-.211.285.965.965,0,0,0-.06.316,1.942,1.942,0,0,0,.014.321,2.149,2.149,0,0,0,.272.747,6.407,6.407,0,0,0,.451.665c.191.248.382.5.572.749s.38.5.568.749c.116.151.23.3.334.457a3.194,3.194,0,0,1,.273.492,3.1,3.1,0,0,1,.192.72c.038.246.057.5.075.75a1.016,1.016,0,0,1,0,.124.3.3,0,0,1-.032.119.333.333,0,0,1-.137.131c-.057.034-.121.063-.176.1-.093.064-.131.125-.129.18a.21.21,0,0,0,.11.152,1.216,1.216,0,0,0,.525.155A.853.853,0,0,0,396.238,466.8Zm22.955-16.943a2.406,2.406,0,0,1,.548-.587c.211-.17.442-.321.666-.473a10.377,10.377,0,0,0,.991-.764,7.171,7.171,0,0,0,.865-.9c-.02.71-.038,1.42-.058,2.13s-.04,1.42-.064,2.129c-.093-.008-.186-.013-.28-.012a1.65,1.65,0,0,0-.279.028,4.536,4.536,0,0,0-1.232.548,2.037,2.037,0,0,1-1.238.334.542.542,0,0,1-.082-.017.2.2,0,0,1-.141-.154.662.662,0,0,1-.018-.14,7.154,7.154,0,0,1,0-1.1A2.317,2.317,0,0,1,419.193,449.855Z" fill="#440b11"/>
  </g>
</svg>
